<?xml version="1.0" standalone="no"?>
<!DOCTYPE svg PUBLIC "-//W3C//DTD SVG 20010904//EN"
 "http://www.w3.org/TR/2001/REC-SVG-20010904/DTD/svg10.dtd">
<svg version="1.0" xmlns="http://www.w3.org/2000/svg"
 width="292.000000pt" height="205.000000pt" viewBox="0 0 292.000000 205.000000"
 preserveAspectRatio="xMidYMid meet">

<g transform="translate(0.000000,205.000000) scale(0.100000,-0.100000)"
fill="#000000" stroke="none">
<path d="M1040 1772 c-23 -11 -43 -33 -58 -62 -21 -41 -23 -55 -19 -155 4
-126 12 -152 102 -345 77 -165 82 -181 95 -298 10 -90 6 -160 -11 -194 -14
-26 -47 -32 -74 -14 -24 16 -25 21 -25 116 l0 100 -45 0 -45 0 0 -97 c0 -159
48 -222 160 -211 101 10 140 76 140 237 0 149 -29 250 -125 441 -61 122 -85
204 -85 295 0 82 16 110 60 110 31 0 36 -4 47 -35 7 -19 12 -70 12 -112 l1
-78 47 0 46 0 -6 100 c-8 126 -31 184 -81 205 -47 20 -93 19 -136 -3z"/>
<path d="M650 1740 l0 -40 50 0 50 0 0 -540 0 -540 45 0 45 0 2 538 3 537 53
3 52 3 0 40 0 39 -150 0 -150 0 0 -40z"/>
<path d="M1370 1765 c0 -9 9 -15 25 -15 l25 0 0 -245 c0 -211 2 -245 15 -245
13 0 15 34 15 245 l0 245 25 0 c16 0 25 6 25 15 0 12 -14 15 -65 15 -51 0 -65
-3 -65 -15z m93 -5 c-23 -9 -23 -11 -25 -252 l-2 -243 -6 245 -5 244 -25 7
c-17 5 -8 7 30 7 42 1 50 -1 33 -8z"/>
<path d="M1530 1520 c0 -224 2 -260 15 -260 13 0 15 21 15 125 l0 125 30 0 30
0 0 -125 c0 -104 2 -125 15 -125 13 0 15 36 15 260 0 224 -2 260 -15 260 -12
0 -15 -20 -15 -120 l0 -120 -30 0 -30 0 0 120 c0 100 -2 120 -15 120 -13 0
-15 -36 -15 -260z m60 15 l35 0 5 120 c4 80 6 34 6 -135 0 -175 -2 -216 -6
-130 l-5 125 -35 0 -35 0 -5 -125 c-4 -86 -6 -45 -6 130 0 169 2 215 6 135 l5
-120 35 0z"/>
<path d="M1734 1765 c-3 -8 -4 -35 -2 -60 2 -25 -1 -45 -5 -45 -5 0 -7 -17 -6
-38 2 -21 0 -42 -3 -47 -5 -9 -16 -108 -23 -215 -2 -25 -7 -58 -10 -73 -6 -22
-4 -27 10 -27 13 0 16 7 13 30 -3 17 -1 30 4 30 6 0 6 35 2 83 -3 45 -4 80 -1
77 3 -3 7 -25 8 -48 3 -38 5 -42 30 -42 32 0 39 -15 39 -81 0 -37 4 -49 15
-49 11 0 15 11 14 48 l-2 47 -8 -40 -7 -40 1 46 c2 32 -3 51 -16 65 -10 11
-14 20 -8 22 6 2 12 18 13 35 1 27 2 25 8 -13 6 -37 7 -34 4 20 -18 321 -19
330 -45 330 -11 0 -22 -7 -25 -15z m32 -106 c1 -61 6 -114 11 -118 5 -3 8 -12
7 -18 -1 -7 -2 -33 -3 -58 -1 -42 -3 -45 -27 -45 l-27 0 8 93 c4 50 9 126 11
167 2 41 3 78 3 83 1 4 4 7 9 7 4 0 8 -50 8 -111z m11 -1 c-2 -13 -4 -3 -4 22
0 25 2 35 4 23 2 -13 2 -33 0 -45z m10 -100 c-3 -7 -5 -2 -5 12 0 14 2 19 5
13 2 -7 2 -19 0 -25z"/>
<path d="M1850 1520 l0 -260 55 0 c41 0 55 4 55 14 0 10 -13 16 -37 18 l-38 3
0 243 c0 224 -1 242 -17 242 -17 0 -18 -19 -18 -260z m31 -226 c6 -7 25 -15
42 -17 20 -3 15 -4 -13 -3 l-45 1 0 245 -1 245 3 -229 c2 -142 7 -234 14 -242z"/>
<path d="M1990 1520 l0 -260 55 0 c40 0 55 4 55 14 0 9 -14 15 -40 18 -22 2
-40 0 -40 -4 0 -4 17 -9 38 -11 l37 -4 -40 -1 -41 -2 4 108 c2 59 5 113 7 120
3 6 18 12 35 12 43 0 39 27 -5 32 -19 2 -35 0 -35 -4 0 -4 15 -9 33 -9 27 -2
28 -2 7 -6 -14 -3 -30 -9 -36 -14 -9 -7 -10 20 -7 103 2 62 6 119 8 126 3 6
20 12 40 12 24 0 35 4 35 15 0 12 -13 15 -55 15 l-55 0 0 -260z m100 246 c0
-2 -18 -6 -40 -8 -22 -2 -40 0 -40 4 0 5 18 8 40 8 22 0 40 -2 40 -4z"/>
<path d="M2136 1758 c-9 -13 -15 -40 -15 -63 l2 -40 7 40 7 40 2 -37 c0 -20
-4 -40 -9 -43 -14 -8 -7 -29 41 -138 32 -71 39 -98 39 -150 0 -36 -5 -68 -12
-75 -8 -8 -8 -12 -1 -12 18 0 33 61 28 114 -4 50 -4 50 5 11 11 -46 4 -112
-13 -122 -7 -4 -25 -8 -41 -9 -17 -1 -23 1 -16 6 9 5 9 9 1 14 -6 4 -11 27
-11 52 0 32 -4 44 -15 44 -11 0 -15 -12 -15 -49 0 -60 18 -81 66 -81 31 0 37
4 51 38 22 52 5 145 -47 261 -46 103 -53 166 -20 194 25 21 50 22 50 1 0 -13
-3 -14 -15 -4 -12 10 -12 7 1 -20 9 -17 14 -42 11 -56 -3 -16 0 -24 9 -24 17
0 19 81 4 111 -15 28 -74 26 -94 -3z m24 -3 c-7 -9 -15 -13 -17 -11 -7 7 7 26
19 26 6 0 6 -6 -2 -15z m26 -212 c19 -40 34 -81 34 -90 0 -10 -18 22 -40 72
-22 49 -40 96 -39 105 0 13 1 13 6 0 3 -8 20 -48 39 -87z m-49 -215 c-2 -13
-4 -5 -4 17 -1 22 1 32 4 23 2 -10 2 -28 0 -40z m13 -38 c0 -5 -2 -10 -4 -10
-3 0 -8 5 -11 10 -3 6 -1 10 4 10 6 0 11 -4 11 -10z"/>
<path d="M1386 1118 c-29 -41 -20 -110 29 -223 52 -119 64 -210 33 -241 -26
-26 -48 -2 -48 52 0 32 -4 44 -15 44 -19 0 -20 -87 -1 -112 16 -21 78 -24 94
-5 35 42 19 173 -34 279 -19 37 -34 75 -35 85 -1 12 -3 9 -8 -7 -6 -22 -8 -18
-15 23 -8 52 0 107 15 107 6 0 6 -8 -1 -19 -5 -11 -9 -35 -9 -53 1 -26 3 -28
6 -8 9 60 14 70 33 70 24 0 40 -28 40 -69 0 -19 5 -31 13 -31 10 0 12 13 7 53
-7 67 -14 77 -55 77 -24 0 -39 -7 -49 -22z m82 0 c7 -7 12 -19 11 -27 0 -11
-3 -10 -8 4 -4 11 -21 23 -37 26 -28 6 -28 7 -3 8 14 0 30 -4 37 -11z m-27
-224 c37 -80 57 -190 38 -208 -9 -8 -10 -8 -5 1 12 21 -12 130 -43 198 -32 69
-34 75 -26 75 2 0 19 -30 36 -66z m-37 -254 c4 -8 0 -6 -8 4 -10 12 -15 37
-15 60 l2 41 6 -45 c4 -25 10 -52 15 -60z m62 2 c-17 -16 -18 -16 -5 5 7 12
15 20 18 17 3 -2 -3 -12 -13 -22z"/>
<path d="M1530 880 c0 -224 2 -260 15 -260 13 0 15 35 15 254 0 216 -2 255
-15 260 -13 5 -15 -28 -15 -254z"/>
<path d="M1612 883 l-2 -263 55 0 c42 0 55 3 55 15 0 10 -10 15 -32 14 l-33
-1 30 -8 c27 -7 25 -8 -17 -9 l-48 -1 -3 258 -2 257 -3 -262z"/>
<path d="M1632 898 c-1 -136 1 -249 6 -251 4 -3 6 70 4 161 -4 308 -8 339 -10
90z"/>
<path d="M1744 1068 c19 -225 30 -308 37 -297 4 7 5 -24 2 -69 l-6 -82 26 0
c24 0 26 3 32 75 4 41 5 84 2 95 -3 11 -2 20 2 20 4 0 13 57 20 128 6 70 14
143 17 163 4 27 2 36 -9 36 -17 0 -37 -168 -40 -333 -1 -61 -6 -101 -12 -99
-5 1 -7 0 -2 -2 12 -8 8 -73 -5 -73 -10 0 -13 29 -14 108 -1 129 -12 224 -25
217 -5 -4 -9 9 -8 27 1 32 1 32 10 8 7 -20 8 -17 4 15 -3 22 -5 59 -5 81 0 30
-5 44 -16 48 -15 6 -16 -1 -10 -66z m13 5 c-3 -10 -5 -2 -5 17 0 19 2 27 5 18
2 -10 2 -26 0 -35z m100 -65 c-3 -7 -5 -2 -5 12 0 14 2 19 5 13 2 -7 2 -19 0
-25z m-10 -85 c-3 -10 -5 -2 -5 17 0 19 2 27 5 18 2 -10 2 -26 0 -35z m-70
-70 c-3 -10 -5 -2 -5 17 0 19 2 27 5 18 2 -10 2 -26 0 -35z"/>
<path d="M1946 1108 c-10 -60 -46 -443 -44 -465 1 -13 6 -23 10 -23 7 0 15 38
20 95 3 26 7 30 36 33 32 3 32 3 32 -40 0 -24 4 -50 10 -58 6 -9 5 -17 -3 -22
-8 -5 -5 -8 8 -8 20 0 20 2 8 143 -6 78 -12 148 -12 155 -1 7 -5 10 -11 7 -5
-3 -10 -2 -10 4 0 5 4 11 9 13 4 2 6 41 3 87 -3 63 -7 79 -15 66 -6 -11 -7
-73 -3 -166 l7 -149 -25 0 c-22 0 -26 5 -26 28 0 15 -2 45 -5 67 -4 33 -3 36
5 15 7 -20 9 -15 7 28 -1 28 1 52 6 52 4 0 7 38 6 85 -1 47 -3 85 -5 85 -2 0
-5 -15 -8 -32z m61 -290 c-2 -13 -4 -5 -4 17 -1 22 1 32 4 23 2 -10 2 -28 0
-40z m-36 -48 c15 0 30 6 32 13 3 6 6 3 6 -9 1 -17 -4 -20 -29 -16 -17 2 -37
-1 -45 -8 -13 -11 -15 -8 -15 16 0 22 3 25 12 16 7 -7 24 -12 39 -12z m-54
-92 c-3 -7 -5 -2 -5 12 0 14 2 19 5 13 2 -7 2 -19 0 -25z"/>
<path d="M396 344 c-27 -27 -19 -51 29 -84 47 -33 59 -64 26 -75 -25 -8 -47 2
-59 28 -10 21 -11 20 -11 -8 -1 -30 0 -30 45 -30 33 0 49 5 60 19 21 29 18 41
-18 71 -18 14 -41 33 -51 41 -15 12 -16 18 -7 30 17 20 36 18 60 -8 l20 -22 0
25 c0 21 -5 24 -39 27 -25 1 -45 -3 -55 -14z"/>
<path d="M702 348 c-7 -7 -12 -20 -12 -30 0 -10 -6 -18 -12 -18 -10 0 -9 -3 1
-9 9 -6 12 -24 10 -60 -3 -36 0 -51 9 -51 8 0 12 18 12 54 0 34 5 56 13 59 10
4 10 6 0 6 -18 1 -16 51 1 51 8 0 18 -5 21 -10 4 -6 11 -8 16 -4 5 3 7 10 4
15 -9 13 -49 11 -63 -3z"/>
<path d="M1525 351 c-3 -5 -1 -12 5 -16 21 -13 10 -35 -18 -35 -57 0 -85 -71
-45 -111 15 -16 28 -19 59 -14 l39 7 -3 89 c-3 67 -7 89 -17 89 -8 0 -16 -4
-20 -9z m5 -81 c6 -12 10 -33 8 -48 -6 -51 -68 -36 -68 17 0 48 40 68 60 31z"/>
<path d="M1969 356 c-2 -2 -3 -43 -1 -90 2 -57 7 -86 15 -86 9 0 11 26 9 90
-3 80 -8 100 -23 86z"/>
<path d="M780 315 c-31 -38 -1 -170 32 -137 9 9 9 12 0 12 -8 0 -12 18 -12 50
0 33 4 50 13 50 8 0 9 3 1 8 -6 4 -13 13 -15 21 -4 10 -8 10 -19 -4z"/>
<path d="M548 283 c-29 -33 -30 -59 -4 -89 21 -25 27 -27 52 -19 16 6 35 23
42 38 29 59 -47 118 -90 70z m62 -13 c27 -50 -15 -117 -46 -76 -26 37 -13 96
23 96 7 0 17 -9 23 -20z"/>
<path d="M865 245 c12 -31 25 -58 28 -61 3 -3 13 9 23 28 l17 33 16 -39 17
-38 26 66 c21 53 23 66 12 66 -9 0 -13 -4 -10 -9 7 -10 -16 -71 -26 -71 -4 0
-11 18 -14 40 -5 31 -11 40 -26 40 -15 0 -17 -4 -10 -17 6 -10 6 -27 -1 -46
l-10 -30 -13 24 c-7 13 -13 34 -14 47 0 15 -6 22 -19 22 -18 0 -18 -2 4 -55z"/>
<path d="M1047 293 c-10 -9 -8 -33 2 -33 5 0 11 9 14 20 5 20 -3 26 -16 13z"/>
<path d="M1088 294 c18 -9 16 -93 -4 -101 -8 -3 -21 0 -27 6 -9 9 -6 16 13 31
30 24 19 26 -15 4 -29 -19 -32 -36 -9 -55 12 -10 20 -10 34 -2 13 9 20 9 29 0
8 -8 14 -8 23 1 9 9 9 12 1 12 -7 0 -13 21 -15 52 -3 44 -6 53 -23 55 -11 2
-14 0 -7 -3z"/>
<path d="M1185 294 c-16 -6 -6 -114 11 -114 10 0 14 14 14 51 0 44 2 50 20 47
10 -2 20 2 22 7 3 10 -47 16 -67 9z"/>
<path d="M1282 288 c-29 -38 -20 -101 17 -113 22 -7 61 10 61 25 0 6 -9 5 -21
-2 -18 -11 -23 -10 -40 11 -28 34 -24 41 21 41 26 0 40 5 40 13 0 33 -57 51
-78 25z m52 -13 c4 -11 -2 -15 -26 -15 -26 0 -29 2 -18 15 7 8 18 15 25 15 7
0 15 -7 19 -15z"/>
<path d="M1606 278 c-22 -31 -20 -64 4 -88 26 -26 42 -25 66 1 19 22 19 22 -4
10 -20 -11 -27 -10 -43 5 -31 28 -24 44 21 44 41 0 52 14 28 38 -19 19 -55 14
-72 -10z m52 -5 c2 -8 -6 -13 -22 -13 -25 0 -33 10 -19 24 10 10 36 3 41 -11z"/>
<path d="M1732 248 c12 -29 25 -57 29 -62 5 -5 20 16 34 48 28 62 29 66 17 66
-4 0 -14 -21 -21 -47 -12 -48 -12 -48 -26 -23 -8 14 -14 35 -15 48 0 15 -6 22
-19 22 -19 0 -19 -1 1 -52z"/>
<path d="M1857 282 c-23 -25 -21 -75 2 -96 25 -23 49 -18 69 14 16 25 16 25
-5 7 -17 -15 -25 -16 -42 -7 -12 6 -21 20 -21 30 0 17 7 20 40 20 43 0 45 2
30 31 -13 24 -52 25 -73 1z m51 -9 c2 -8 -6 -13 -22 -13 -25 0 -33 10 -19 24
10 10 36 3 41 -11z"/>
<path d="M2050 280 c-27 -27 -26 -75 2 -94 31 -22 51 -20 76 7 57 61 -19 146
-78 87z m66 -15 c33 -51 -11 -111 -48 -66 -21 27 -24 61 -6 79 19 19 36 14 54
-13z"/>
<path d="M2180 290 c-11 -7 -12 -10 -2 -10 10 0 13 -19 10 -80 -2 -68 -1 -80
13 -80 11 0 14 7 11 29 -4 26 -2 28 21 24 53 -10 90 73 49 110 -22 20 -43 22
-60 5 -9 -9 -12 -9 -12 0 0 14 -10 15 -30 2z m92 -35 c16 -36 -4 -78 -35 -73
-17 2 -23 11 -25 36 -2 19 -1 40 2 48 9 23 45 16 58 -11z"/>
<path d="M2337 282 c-22 -25 -21 -75 1 -95 25 -23 45 -21 68 4 19 22 19 22 -3
10 -29 -15 -63 1 -63 29 0 17 7 20 40 20 43 0 45 2 30 31 -13 24 -52 25 -73 1z
m51 -9 c2 -8 -6 -13 -22 -13 -25 0 -33 10 -19 24 10 10 36 3 41 -11z"/>
<path d="M2455 294 c-14 -5 -6 -114 8 -114 8 0 12 20 11 55 -1 58 -3 64 -19
59z"/>
<path d="M2485 290 c-3 -5 3 -10 14 -10 12 0 21 5 21 10 0 6 -6 10 -14 10 -8
0 -18 -4 -21 -10z"/>
</g>
</svg>
